<svg width="861" height="600" viewBox="0 0 861 600" fill="none" xmlns="http://www.w3.org/2000/svg">
<path fill-rule="evenodd" clip-rule="evenodd" d="M188.179 128.153C144.197 128.153 108.219 163.901 108.219 207.601C108.219 251.301 144.197 287.05 188.179 287.05C197.002 287.05 204.228 294.229 204.228 302.996C204.228 311.762 197.002 318.942 188.179 318.942H146.339C124.883 318.942 107.326 336.387 107.326 357.705C107.326 379.023 124.883 396.467 146.339 396.467C164.895 396.467 180.078 411.554 180.078 429.991C180.078 463.63 207.778 491.153 241.634 491.153H602.985C646.966 491.153 682.945 455.404 682.945 411.705C682.945 368.005 646.966 332.256 602.985 332.256H595.25C586.427 332.256 579.201 325.085 579.201 316.31C579.201 307.543 586.418 300.363 595.25 300.363H647.314C668.77 300.363 686.326 282.919 686.326 261.601C686.326 240.309 668.814 222.883 647.394 222.838H605.501C586.945 222.838 571.761 207.752 571.761 189.315C571.761 155.676 544.061 128.153 510.205 128.153H188.179Z" fill="#F7FFF7"/>
<path d="M339.087 519.969H703.709C714.527 519.969 723.299 511.197 723.299 500.379V271.919C723.299 261.101 714.527 252.328 703.709 252.328H339.087C328.269 252.328 319.496 261.101 319.496 271.919V500.379C319.496 511.197 328.269 519.969 339.087 519.969Z" fill="white" stroke="#FFE66D" stroke-width="2.819"/>
<path d="M319.496 271.919C319.496 273.57 320.152 275.154 321.32 276.321C322.487 277.489 324.071 278.145 325.722 278.145H717.073C718.724 278.145 720.308 277.489 721.475 276.322C722.643 275.154 723.299 273.57 723.299 271.919C723.299 261.101 714.527 252.328 703.709 252.328H339.087C328.269 252.328 319.496 261.101 319.496 271.919Z" fill="white" stroke="#FFE66D" stroke-width="2.819"/>
<path d="M380.386 270.667C379.794 270.667 379.207 270.55 378.66 270.324C378.113 270.097 377.616 269.765 377.197 269.346C376.778 268.927 376.446 268.43 376.219 267.883C375.993 267.336 375.876 266.749 375.876 266.157C375.876 265.565 375.993 264.978 376.219 264.431C376.446 263.884 376.778 263.387 377.197 262.968C377.616 262.549 378.113 262.217 378.66 261.99C379.207 261.764 379.794 261.647 380.386 261.647C381.582 261.647 382.729 262.122 383.575 262.968C384.421 263.814 384.896 264.961 384.896 266.157C384.896 267.353 384.421 268.5 383.575 269.346C382.729 270.192 381.582 270.667 380.386 270.667ZM361.595 270.667C361.003 270.667 360.416 270.55 359.869 270.323C359.322 270.097 358.825 269.765 358.406 269.346C357.987 268.927 357.655 268.43 357.429 267.882C357.202 267.335 357.085 266.749 357.086 266.156C357.086 265.564 357.202 264.978 357.429 264.431C357.656 263.883 357.988 263.386 358.407 262.968C358.826 262.549 359.323 262.217 359.87 261.99C360.417 261.763 361.004 261.647 361.596 261.647C362.792 261.647 363.939 262.122 364.785 262.968C365.631 263.814 366.106 264.961 366.105 266.157C366.105 267.354 365.63 268.501 364.784 269.346C363.938 270.192 362.791 270.667 361.595 270.667ZM343.556 270.667C342.36 270.667 341.213 270.192 340.367 269.346C339.521 268.5 339.046 267.353 339.047 266.156C339.047 264.96 339.522 263.813 340.368 262.968C341.214 262.122 342.361 261.647 343.557 261.647C344.149 261.647 344.736 261.764 345.283 261.99C345.83 262.217 346.327 262.549 346.746 262.968C347.165 263.387 347.497 263.884 347.723 264.432C347.95 264.979 348.067 265.565 348.066 266.157C348.066 266.75 347.95 267.336 347.723 267.883C347.496 268.43 347.164 268.928 346.745 269.346C346.326 269.765 345.829 270.097 345.282 270.324C344.735 270.55 344.148 270.667 343.556 270.667Z" fill="#FFE66D"/>
<path d="M561.913 322.537C561.913 322.537 579.133 319.759 583.757 350.588C588.896 384.861 602.616 379.223 624.404 407.052C637.138 423.314 623.738 452.032 596.506 451.462C569.273 450.907 544.68 442.922 529.015 446.338C513.351 449.754 512.49 409.066 527.946 396.512C543.402 383.958 510.449 347.908 530.529 331.855C550.609 315.802 561.913 322.537 561.913 322.537Z" fill="#1A535C"/>
<path d="M520.031 414.648L502.242 479.68L508.588 472.375C506.241 473.625 503.519 474.583 500.506 475.264C497.492 475.944 494.215 476.333 490.785 476.513C487.355 476.694 483.786 476.666 480.12 476.513C476.468 476.361 472.732 476.083 468.941 475.764H468.927C466.241 475.536 463.574 476.383 461.512 478.119C459.45 479.856 458.161 482.34 457.929 485.026C457.47 490.359 461.261 495.08 466.455 495.927C470.371 496.552 474.343 497.135 478.426 497.608C482.508 498.08 486.688 498.427 491.021 498.524C495.354 498.621 499.839 498.455 504.477 497.788C509.102 497.122 513.907 495.913 518.6 493.886C521.6 492.594 523.738 490.123 524.71 487.248L524.933 486.568L546.277 422.605C548.679 415.411 544.791 407.649 537.598 405.246C530.404 402.844 522.641 406.732 520.239 413.925C520.169 414.161 520.086 414.425 520.031 414.648Z" fill="#F8AE9D"/>
<path d="M608.531 491.401C608.531 491.401 609.184 496.289 602.629 497.58L534.431 498.983C534.431 498.983 529.848 496.608 530.751 490.915C530.751 490.901 559.733 475.111 608.531 491.401Z" fill="#1A535C"/>
<path d="M534.612 492.914C549.693 492.191 579.355 492.247 603.185 501.412C602.337 496.617 601.684 491.79 601.227 486.942C586.187 485.928 549.304 483.887 534.806 487.123L534.612 492.914Z" fill="#F8AE9D"/>
<path d="M532.765 515.516C574.927 520.491 606.365 510.818 606.365 510.818C604.548 506.685 603.216 502.031 602.272 497.799C601.427 493.986 600.774 490.132 600.316 486.253C585.291 485.444 548.442 483.816 533.958 486.397L533.764 491.018L532.765 515.516Z" fill="#F8AE9D"/>
<path d="M530.446 478.694V478.791C530.473 479.055 530.487 479.332 530.501 479.624C530.571 480.735 530.626 482.068 530.668 483.582C530.709 484.804 530.723 486.137 530.737 487.567C530.737 488.636 530.751 489.747 530.751 490.9C550.859 482.221 591.978 488.387 608.531 491.4C608.365 490.567 608.212 489.747 608.059 488.942C607.948 488.345 607.851 487.762 607.74 487.178C606.643 480.832 606.059 475.125 605.865 470.028L605.823 468.667C605.657 461.099 606.476 450.337 608.143 439.255C608.254 438.491 608.379 437.727 608.49 436.977L608.74 435.478C609.345 431.797 610.054 428.134 610.864 424.493C611.142 423.271 611.378 422.035 611.573 420.813C611.795 419.452 611.961 418.091 612.086 416.744C612.392 413.328 612.364 409.995 611.92 406.898C611.128 401.385 608.976 396.636 604.99 393.581C602.741 391.859 599.894 390.665 596.366 390.193C595.214 390.04 594.075 389.887 592.978 389.762C589.911 389.396 586.836 389.09 583.757 388.846C582.91 388.776 582.119 388.721 581.41 388.665C580.147 388.573 578.883 388.494 577.619 388.429C577.314 388.415 577.147 388.401 577.147 388.401L546.277 396.942L543.333 397.747C542.083 398.136 540.902 398.511 539.805 398.872C537.083 399.774 534.764 400.635 532.765 401.483C530.293 402.538 528.321 403.566 526.765 404.649C519.961 409.356 520.933 414.786 520.961 425.479V426.215C520.961 427.02 520.947 427.826 520.919 428.631C520.892 429.637 520.836 430.642 520.752 431.645C520.611 433.645 520.411 435.641 520.155 437.63C518.683 449.656 515.934 460.377 518.669 465.918C521.6 471.861 527.571 476.583 529.682 478.138C530.154 478.499 530.446 478.694 530.446 478.694Z" fill="#FF6B6B"/>
<path d="M587.146 485.998C587.279 485.971 587.401 485.905 587.497 485.809C587.593 485.712 587.659 485.59 587.687 485.457C587.705 485.369 587.705 485.278 587.687 485.189C587.67 485.1 587.635 485.016 587.585 484.941C587.534 484.866 587.47 484.802 587.394 484.752C587.319 484.702 587.235 484.668 587.146 484.651C573.078 481.874 562.955 476.916 562.857 476.861C562.695 476.782 562.508 476.769 562.337 476.826C562.165 476.883 562.023 477.005 561.941 477.166C561.862 477.328 561.849 477.515 561.906 477.687C561.963 477.858 562.085 478.001 562.246 478.083C562.344 478.138 572.62 483.179 586.882 485.985C586.979 486.012 587.062 486.012 587.146 485.998ZM575.772 390.915C575.772 390.915 573.009 401.372 562.566 404.274C549.29 407.954 547.291 403.497 547.291 403.497C547.624 401.594 547.735 399.733 547.652 397.761C547.618 396.996 547.558 396.231 547.471 395.47C547.235 393.331 546.791 390.998 546.166 388.332C546.027 387.707 545.86 387.055 545.694 386.388L545.68 386.305C554.762 382.889 561.886 377.764 566.246 370.182L567.538 369.168L568.412 368.474L568.662 369.002L568.704 370.765C568.885 379.056 570.287 383.958 575.772 390.915Z" fill="#F8AE9D"/>
<path d="M560.678 378.208C559.275 382.93 555.692 391.415 547.471 395.456C547.235 393.317 546.791 390.984 546.166 388.318C546.027 387.693 545.861 387.04 545.694 386.374C545.874 386.374 546.069 386.36 546.263 386.346C551.401 386.041 556.609 382.708 560.678 378.208Z" fill="#F8AE9D"/>
<path d="M578.078 353.532C579.05 358.559 575.967 365.544 569.426 367.002L569.398 367.016L569.26 367.044C569.204 367.349 569.135 367.655 569.065 367.974C569.037 368.113 568.996 368.252 568.968 368.391C568.968 368.405 568.968 368.419 568.954 368.432C566.496 377.764 555.289 385.138 548.735 386.596C546.388 387.11 544.708 386.888 544.18 386.874C536.903 386.708 533.779 377.514 533.487 370.085C533.442 369.057 533.46 368.027 533.543 367.002C533.543 366.933 533.556 366.863 533.556 366.808C533.556 366.808 529.279 357.17 527.877 352.865C525.183 344.533 528.404 334.923 546.791 329.619C565.177 324.314 571.898 335.062 574.398 340.964C574.814 341.95 575.786 348.102 574.953 349.282C576.883 349.852 577.744 351.838 578.078 353.532Z" fill="#F8AE9D"/>
<path d="M546.68 378.903C547.596 378.487 547.957 377.695 547.985 377.653C548.082 377.417 547.985 377.153 547.749 377.056C547.64 377.009 547.517 377.005 547.406 377.047C547.294 377.088 547.203 377.171 547.152 377.278C547.124 377.334 546.652 378.306 545.319 378.237C545.198 378.231 545.079 378.272 544.988 378.353C544.897 378.433 544.841 378.546 544.833 378.667C544.819 378.917 545.013 379.139 545.263 379.153C545.749 379.184 546.234 379.098 546.68 378.903ZM569.412 367.002L569.385 367.016L569.246 367.044C569.19 367.349 569.121 367.655 569.051 367.974C569.024 368.113 568.982 368.252 568.954 368.391C568.954 368.405 568.954 368.418 568.94 368.432C568.163 368.46 567.177 368.363 566.204 367.918C565.586 367.636 565.033 367.23 564.58 366.724C564.519 366.657 564.473 366.578 564.443 366.493C564.412 366.407 564.4 366.317 564.405 366.227C564.41 366.136 564.433 366.048 564.472 365.966C564.512 365.885 564.567 365.812 564.635 365.752C564.701 365.69 564.78 365.642 564.865 365.611C564.951 365.58 565.042 365.566 565.133 365.572C565.224 365.577 565.313 365.601 565.394 365.641C565.476 365.682 565.548 365.739 565.607 365.808C566.113 366.357 566.77 366.743 567.496 366.919C567.909 367.024 568.334 367.07 568.76 367.057C569.01 367.03 569.232 367.016 569.412 367.002Z" fill="#F8AE9D"/>
<path opacity="0.5" d="M537.028 367.891C537.153 368.641 535.626 369.557 533.473 370.071C533.429 369.043 533.447 368.014 533.529 366.988C535.445 366.863 536.903 367.21 537.028 367.891Z" fill="#F8AE9D"/>
<path d="M541.875 369.404C541.769 369.427 541.659 369.423 541.555 369.39L538.709 368.377C538.615 368.343 538.531 368.286 538.465 368.21C538.4 368.135 538.355 368.044 538.334 367.946C538.313 367.848 538.319 367.746 538.35 367.651C538.382 367.556 538.438 367.471 538.514 367.405C540.306 365.821 541.166 363.752 541.236 360.892C541.243 360.738 541.309 360.593 541.42 360.487C541.531 360.381 541.679 360.322 541.833 360.322C541.987 360.329 542.131 360.395 542.237 360.506C542.343 360.617 542.402 360.765 542.402 360.919C542.333 363.752 541.555 365.891 539.972 367.613L541.944 368.307C542.088 368.359 542.206 368.465 542.273 368.602C542.341 368.739 542.352 368.897 542.305 369.043C542.271 369.135 542.213 369.217 542.138 369.28C542.062 369.344 541.972 369.386 541.875 369.404Z" fill="#F8AE9D"/>
<path opacity="0.5" d="M548.665 365.753C548.818 366.614 551.068 366.933 553.692 366.475C556.317 366.016 558.331 364.947 558.178 364.1C558.025 363.239 555.775 362.92 553.151 363.378C550.526 363.836 548.527 364.892 548.665 365.753Z" fill="#F8AE9D"/>
<path d="M568.038 363.197C568.172 363.148 568.288 363.059 568.37 362.943C568.452 362.826 568.496 362.687 568.496 362.544C568.496 357.642 573.745 354.504 573.801 354.462C573.88 354.417 573.949 354.357 574.005 354.285C574.06 354.212 574.101 354.13 574.124 354.042C574.147 353.954 574.153 353.863 574.14 353.773C574.128 353.683 574.097 353.596 574.051 353.518C574.006 353.439 573.946 353.37 573.873 353.314C573.801 353.259 573.719 353.218 573.631 353.195C573.543 353.171 573.451 353.166 573.361 353.178C573.271 353.191 573.184 353.221 573.106 353.268C572.856 353.407 567.107 356.823 567.121 362.544C567.121 362.933 567.427 363.239 567.815 363.239C567.885 363.239 567.968 363.211 568.038 363.197Z" fill="#F8AE9D"/>
<path d="M573.44 359.406C573.524 359.378 573.6 359.331 573.662 359.267C573.729 359.206 573.783 359.133 573.822 359.051C573.86 358.969 573.882 358.88 573.885 358.79C573.889 358.699 573.875 358.609 573.844 358.524C573.812 358.439 573.765 358.361 573.703 358.295C573.634 358.212 571.954 356.421 569.218 357.059C569.129 357.08 569.046 357.118 568.972 357.171C568.898 357.224 568.835 357.292 568.788 357.369C568.74 357.447 568.708 357.533 568.694 357.623C568.679 357.713 568.683 357.804 568.704 357.893C568.725 357.982 568.762 358.065 568.816 358.139C568.869 358.213 568.936 358.276 569.013 358.323C569.091 358.371 569.177 358.403 569.267 358.417C569.357 358.431 569.449 358.428 569.537 358.406C571.495 357.948 572.676 359.212 572.69 359.226C572.884 359.448 573.19 359.503 573.44 359.406Z" fill="#F8AE9D"/>
<path d="M550.054 339.492C550.054 339.492 550.04 345.005 555.123 347.199C559.331 349.019 561.705 349.296 561.705 349.296C561.705 349.296 558.359 365.072 564.288 366.127C570.232 367.183 566.51 351.324 574.926 349.282C574.926 349.282 577.87 348.06 576.536 342.77C575.203 337.479 567.982 323.661 549.374 327.494C535.417 330.369 524.475 340.242 525.849 350.143C527.224 360.045 528.974 357.726 528.974 357.726C528.974 357.726 526.891 352.199 532.834 346.63C537.75 342.006 550.054 339.492 550.054 339.492Z" fill="#1A535C"/>
<path d="M571.759 478.527C571.893 478.526 572.022 478.481 572.128 478.399C572.234 478.317 572.31 478.203 572.345 478.074C572.38 477.945 572.371 477.808 572.32 477.684C572.27 477.56 572.18 477.456 572.065 477.388C571.87 477.277 567.385 474.75 562.691 474.375C562.536 474.372 562.386 474.428 562.271 474.532C562.156 474.635 562.086 474.779 562.073 474.933C562.061 475.088 562.108 475.241 562.205 475.362C562.301 475.482 562.441 475.562 562.594 475.583C567.01 475.93 571.412 478.402 571.468 478.43C571.551 478.513 571.648 478.527 571.759 478.527Z" fill="#F8AE9D"/>
<path d="M564.302 475.819C564.414 475.819 564.524 475.791 564.621 475.736C567.454 474.014 570.884 473.764 570.912 473.75C571.073 473.735 571.221 473.659 571.327 473.537C571.433 473.416 571.488 473.258 571.481 473.097C571.469 472.936 571.393 472.785 571.271 472.679C571.149 472.573 570.991 472.518 570.829 472.528C570.676 472.542 567.065 472.806 563.996 474.68C563.859 474.763 563.76 474.898 563.721 475.054C563.682 475.21 563.706 475.375 563.788 475.513C563.835 475.608 563.908 475.688 564 475.742C564.091 475.797 564.196 475.823 564.302 475.819Z" fill="#F8AE9D"/>
<path d="M580.938 405.871L560.414 480.929L567.732 472.5C565.024 473.944 561.886 475.041 558.414 475.833C554.942 476.611 551.151 477.069 547.207 477.263C543.249 477.472 539.125 477.43 534.903 477.263C530.682 477.083 526.377 476.777 522.002 476.402H521.975C515.517 475.847 509.838 480.638 509.282 487.095C508.754 493.247 513.129 498.705 519.128 499.677C523.641 500.399 528.238 501.079 532.945 501.621C537.653 502.162 542.486 502.579 547.485 502.69C552.484 502.801 557.664 502.607 563.01 501.829C568.357 501.051 573.898 499.663 579.314 497.33C580.96 496.62 582.439 495.572 583.654 494.254C584.869 492.935 585.794 491.376 586.368 489.678L586.632 488.9L611.239 415.064C614.003 406.76 609.531 397.803 601.227 395.025C592.937 392.262 583.966 396.733 581.188 405.038C581.105 405.302 581.008 405.621 580.938 405.871Z" fill="#F8AE9D"/>
<path d="M607.575 508.08L605.9 504.037L602.494 497.391C602.494 497.391 562.431 504.184 533.651 497.099L532.963 500.342C532.963 500.342 549.521 510.771 575.528 510.068C601.55 509.366 607.575 508.08 607.575 508.08Z" fill="#1A535C"/>
<path d="M549.694 503.486H455.489L454.463 499.308C453.825 496.681 455.503 494.054 457.82 494.054H544.741C546.295 494.054 547.668 495.261 548.098 497.024L549.694 503.486Z" fill="#FFE66D"/>
<path d="M386.12 405.914L402.228 474.043L402.659 475.834L403.742 480.417C403.969 481.381 404.515 482.24 405.291 482.855C406.067 483.47 407.029 483.805 408.019 483.805H516.545C519.378 483.805 521.489 481.153 520.836 478.389L503.214 403.886C502.987 402.922 502.441 402.063 501.665 401.448C500.889 400.833 499.927 400.498 498.937 400.498H390.411C387.564 400.512 385.467 403.164 386.12 405.914Z" fill="#FF6B6B"/>
<path d="M438.848 445.075C439.362 449.769 443.584 453.56 448.277 453.56C452.971 453.56 456.346 449.755 455.832 445.075C455.318 440.381 451.096 436.59 446.403 436.59C441.709 436.59 438.334 440.381 438.848 445.075Z" fill="white"/>
<path d="M494.617 400.512L513.379 483.819H516.545C519.378 483.819 521.475 481.166 520.822 478.403L503.2 403.9C502.973 402.936 502.427 402.077 501.65 401.462C500.874 400.847 499.912 400.512 498.922 400.512H494.617ZM463.192 483.819L466.483 502.33H455.61L452.318 483.819H463.192Z" fill="#1A535C"/>
<path d="M482.758 499.136L480.537 496.012C480.144 495.462 479.625 495.014 479.023 494.704C478.422 494.395 477.755 494.234 477.079 494.234H447.264C446.49 494.232 445.73 494.443 445.069 494.845C444.407 495.247 443.869 495.824 443.514 496.512L442.014 499.386C441.306 500.733 442.292 502.33 443.806 502.33H481.106C482.745 502.33 483.703 500.47 482.758 499.136Z" fill="#1A535C"/>
<path d="M361.841 507.395V512.153C361.841 514.896 363.83 517.11 366.304 517.11H676.491C678.952 517.11 680.955 514.896 680.955 512.153V507.395C680.955 504.664 678.965 502.438 676.491 502.438H366.304C363.843 502.451 361.841 504.664 361.841 507.395Z" fill="white"/>
<path d="M97 369.058H461.622C472.44 369.058 481.213 360.285 481.213 349.468V121.008C481.213 110.19 472.44 101.417 461.622 101.417H97C86.182 101.417 77.409 110.19 77.409 121.008V349.468C77.409 360.285 86.182 369.058 97 369.058Z" fill="white" stroke="#FFE66D" stroke-width="2.819"/>
<path d="M77.409 121.008C77.4093 122.659 78.0653 124.243 79.2328 125.41C80.4004 126.578 81.9838 127.234 83.635 127.234H474.986C476.637 127.234 478.221 126.578 479.389 125.41C480.557 124.243 481.213 122.659 481.213 121.008C481.213 110.19 472.44 101.417 461.622 101.417H97C86.182 101.417 77.409 110.19 77.409 121.008Z" fill="white" stroke="#FFE66D" stroke-width="2.819"/>
<path d="M138.299 119.756C137.103 119.756 135.956 119.281 135.11 118.435C134.264 117.589 133.789 116.442 133.789 115.246C133.789 114.05 134.264 112.903 135.11 112.057C135.956 111.211 137.103 110.736 138.299 110.736C139.495 110.736 140.642 111.211 141.488 112.057C142.334 112.903 142.809 114.05 142.809 115.246C142.809 116.442 142.334 117.589 141.488 118.435C140.642 119.281 139.495 119.756 138.299 119.756ZM119.509 119.756C118.313 119.756 117.166 119.281 116.32 118.435C115.474 117.589 114.999 116.442 114.999 115.246C114.999 114.05 115.474 112.903 116.32 112.057C117.166 111.211 118.313 110.736 119.509 110.736C120.705 110.736 121.852 111.211 122.698 112.057C123.544 112.903 124.019 114.05 124.019 115.246C124.019 116.442 123.544 117.589 122.698 118.435C121.852 119.281 120.705 119.756 119.509 119.756ZM101.47 119.756C100.274 119.756 99.1267 119.281 98.281 118.435C97.4352 117.589 96.96 116.442 96.96 115.246C96.96 114.05 97.4352 112.903 98.281 112.057C99.1267 111.211 100.274 110.736 101.47 110.736C102.666 110.736 103.813 111.211 104.659 112.057C105.505 112.903 105.98 114.05 105.98 115.246C105.98 116.442 105.505 117.589 104.659 118.435C103.813 119.281 102.666 119.756 101.47 119.756Z" fill="#FFE66D"/>
<path d="M272.071 226.262C269.648 230.063 263.32 234.491 258.831 234.431C243.539 234.15 238.505 223.734 236.855 219.941C237.165 219.866 237.687 219.805 238.058 219.76C240.874 219.351 243.751 216.565 244.591 213.423C245.674 209.336 247.006 201.342 246.847 196.262L266.189 206.966C266.149 208.533 266.06 210.098 265.924 211.66C265.825 212.644 265.727 213.613 265.613 214.551C265.511 215.4 265.397 216.248 265.273 217.095C264.917 219.745 266.098 222.371 268.331 223.832L272.071 226.262Z" fill="#F8AE9D"/>
<path d="M273.735 184.627C272.691 187.367 273.13 190.479 274.19 193.211C274.939 195.142 276.605 193.438 278.679 193.476C281.888 193.529 284.394 190.191 286.332 181.341C287.566 174.846 287.876 171.553 287.627 170.925C286.741 168.677 283.819 167.473 281.412 167.261" fill="#1A535C"/>
<path d="M278.619 165.164C283.676 171.258 285.515 188.404 281.246 200.35C278.21 208.843 274.682 214.324 270.564 214.15C264.311 213.885 252.192 208.745 248.248 204.453C241.139 196.724 243.206 181.568 244.674 172.03C246.007 163.362 250.064 152.105 260.958 154.248C268.119 155.648 274.084 159.691 278.619 165.164Z" fill="#F8AE9D"/>
<path d="M250.009 171.895C251.13 173.336 253.107 173.654 254.736 173.939C256.926 174.321 258.01 175.119 259.146 177.261C259.866 178.628 260.586 180.126 261.874 180.867C262.92 181.472 262.881 179.927 263.05 178.731C263.065 178.627 263.086 178.523 263.113 178.421C263.368 177.465 264.385 177.629 264.685 178.571C264.958 179.418 265.541 180.135 266.283 180.533C266.405 180.599 266.533 180.656 266.662 180.631C266.837 180.607 266.973 180.444 267.087 180.297C267.325 179.99 267.562 179.599 267.807 179.186C268.611 177.828 270.129 178.316 271.026 179.613C271.587 180.419 272.254 181.25 273.171 181.437C273.466 181.502 273.837 181.453 273.974 181.169C274.148 180.818 273.875 180.468 273.921 180.11C273.959 179.776 274.103 179.63 274.262 179.345C274.887 178.237 276.313 178.197 277.192 179.117C277.805 179.757 278.443 180.37 279.103 180.957C279.384 181.201 279.793 181.445 280.073 181.201C280.225 181.071 280.263 180.851 280.293 180.639C280.452 179.605 280.603 178.571 280.763 177.537C280.854 176.959 281.164 176.202 281.695 176.349C281.952 176.422 282.104 176.691 282.248 176.935C282.422 177.244 285.536 180.77 285.597 180.501C286.081 178.498 287.074 176.674 287.559 174.672C290.696 161.783 276.777 151.419 266.147 151.362C263.783 151.346 261.624 151.384 259.328 151.93C256.881 152.516 254.297 153.447 252.077 154.757C248.963 156.589 246.607 159.919 247.213 163.892" fill="#1A535C"/>
<path d="M255.015 167.473C256.559 169.222 256.968 171.682 257.112 174.006C257.324 177.511 257.036 181.152 255.416 184.263C254.954 185.149 254.614 189.532 253.902 189.29C253.675 189.214 253.713 185.815 253.115 183.983C252.191 181.145 247.937 180.062 246.022 181.856C242.963 184.71 244.757 188.177 245.772 190.335C246.377 191.637 247.339 193.098 247.505 194.475C247.71 196.239 247.77 202.666 246.62 204.165C245.658 205.422 244.636 199.351 243.766 198.155C237.323 189.245 231.146 166.557 242.146 161.636C243.819 160.887 248.981 160.501 250.548 161.455L255.015 167.473ZM295.743 347.823C296.378 347.929 297.022 348.02 297.688 348.043C301.231 348.156 304.653 347.377 308.112 346.786C311.155 346.264 311.98 345.976 311.92 342.305C311.39 313.228 307.113 284.227 299.422 256.18C298.248 251.895 296.969 247.58 294.721 243.749C290.883 237.216 282.071 231.577 275.311 228.412C274.357 227.966 270.405 230.479 269.444 230.048C268.604 229.669 267.862 229.079 267.014 228.708C264.531 227.625 262.866 229.889 260.791 230.835C259.716 231.319 258.52 231.63 257.339 231.577C256.378 231.539 255.507 230.956 254.629 231.41C250.678 233.454 240.867 218.284 240.867 218.284L236.605 222.712L224.167 235.74L193.084 278.564C193.084 278.564 187.445 313.659 183.569 336.665C182.895 340.632 180.23 349.208 179.701 352.214C179.814 351.563 206.234 351.389 207.657 351.389H261.503C264.523 351.389 272.646 352.668 274.766 350.45C277.377 347.725 280.398 335.219 280.557 331.714C281.079 319.927 280.269 308.232 280.11 296.377C280.178 301.199 281.564 305.559 282.154 310.283C282.919 316.362 284.009 322.433 284.993 328.482C285.78 333.342 286.537 338.217 287.143 343.107C287.415 345.31 287.067 346.62 288.929 347.483C290.496 348.202 293.911 347.513 295.743 347.823Z" fill="#1A535C"/>
<path d="M282.624 337.755C281.186 337.164 272.306 334.961 268.302 334.129C266.205 333.697 256.697 331.229 254.494 331.229C252.291 331.229 249.293 334.378 249.293 334.378L250.088 345.211C252.208 344.999 255.046 346.097 256.568 346.309C258.09 346.521 263.26 346.551 266.439 344.954C266.621 344.863 266.788 344.765 266.954 344.666C268.234 345.802 269.838 346.907 271.617 346.998C271.617 346.998 273.01 346.854 272.874 346.294C272.813 346.021 271.89 344.613 270.966 343.235C272.329 344.621 274.555 346.869 277.121 346.998C277.121 346.998 278.514 346.854 278.377 346.294C278.302 345.961 276.969 343.97 275.894 342.388C275.91 342.403 275.932 342.41 275.94 342.425C277.068 343.417 279.748 346.839 282.92 346.998C282.92 346.998 284.312 346.854 284.176 346.294C284.131 346.089 283.601 345.249 282.957 344.273C283.767 344.893 284.759 345.552 285.963 346.15C289.392 347.846 291.345 346.559 291.345 346.15C291.353 345.734 284.063 338.345 282.624 337.755Z" fill="#F8AE9D"/>
<path d="M251.747 325.173C251.747 325.173 257.273 328.307 256.781 334.969C256.289 341.63 254.29 349.352 245.948 348.542C237.606 347.74 251.747 325.173 251.747 325.173Z" fill="#1A535C"/>
<path d="M247.294 347.884C227.294 354.826 200.533 348.194 183.569 336.665C172.94 329.458 166.158 320.306 167.301 311.366C170.261 288.141 188.512 234.908 204.303 227.141C215.038 221.857 228.058 219.669 235.318 218.791C238.725 218.375 240.852 218.276 240.852 218.276L238.217 225.71L225.03 262.894C224.538 284.961 208.747 298.065 211.889 303.205C215.03 308.33 239.837 313.864 252.866 322.637C256.469 325.075 261.041 342.706 247.294 347.884Z" fill="#1A535C"/>
<path d="M225.03 262.894C225.045 267.08 224.462 271.274 223.372 275.332C222.275 279.389 220.67 283.303 218.808 287.073C217.874 288.95 216.892 290.803 215.863 292.629C214.856 294.461 213.819 296.278 212.971 298.141C212.555 299.072 212.191 300.033 212.048 300.979C212.01 301.441 211.972 301.918 212.101 302.319C212.131 302.539 212.259 302.705 212.335 302.902C212.479 303.076 212.577 303.265 212.759 303.432C214.114 304.787 216.052 305.703 217.892 306.589C225.447 310.033 233.471 312.584 241.117 316.021C244.94 317.739 248.725 319.594 252.245 321.911L252.896 322.35C253.115 322.501 253.32 322.698 253.532 322.872C253.925 323.258 254.266 323.682 254.538 324.144C255.099 325.06 255.477 326.059 255.772 327.073C256.333 329.11 256.567 331.207 256.582 333.304C256.446 331.222 256.098 329.14 255.485 327.164C254.834 325.204 253.827 323.296 251.942 322.38C248.407 320.185 244.614 318.436 240.768 316.824C236.906 315.239 233.017 313.719 229.103 312.266C225.189 310.783 221.253 309.367 217.407 307.611C215.515 306.672 213.569 305.786 211.957 304.159C211.752 303.962 211.586 303.689 211.412 303.455C211.283 303.167 211.109 302.895 211.063 302.592C210.882 301.986 210.942 301.388 210.995 300.82C211.177 299.7 211.586 298.686 212.025 297.717C212.926 295.779 213.978 293.969 215 292.145C216.022 290.321 217.051 288.511 218.028 286.672C221.926 279.344 224.637 271.282 225.03 262.894Z" fill="white"/>
<path d="M276.862 229.131C274.955 231.024 266.461 237.072 258.361 237.072C257.014 237.072 255.59 236.951 254.084 236.671C247.286 235.43 241.563 230.895 238.217 225.702C237.606 224.747 237.067 223.747 236.605 222.712C236.019 221.462 235.587 220.145 235.318 218.791C238.724 218.374 241.979 217.519 242.509 216.913C243.085 220.88 247.982 228.041 255.401 229.389C256.332 229.563 257.21 229.639 258.051 229.654H258.066C260.88 229.715 263.651 228.96 266.045 227.481C266.06 227.481 269.595 224.695 269.61 224.68L276.862 229.131Z" fill="#1A535C"/>
<path d="M282.193 315.611C282.172 315.241 282.22 314.875 282.206 314.504C282.191 314.103 282.147 313.711 282.117 313.311L281.897 311.018C281.752 309.457 281.619 307.895 281.496 306.332C281.262 303.234 281.102 300.131 281.018 297.026C280.858 290.817 280.948 284.595 281.365 278.4C281.48 276.665 281.625 274.935 281.786 273.205C281.872 272.321 281.966 271.428 282.06 270.544C282.156 269.674 282.297 268.809 282.308 267.929C282.315 267.383 281.494 267.345 281.371 267.853C281.008 269.359 280.955 270.977 280.799 272.518C280.651 274.066 280.518 275.615 280.401 277.165C280.175 280.293 280.026 283.427 279.952 286.562C279.818 292.802 280.04 299.045 280.572 305.27C280.724 307.02 280.898 308.762 281.109 310.502C281.22 311.39 281.33 312.271 281.463 313.158C281.523 313.549 281.576 313.94 281.65 314.323C281.744 314.772 281.911 315.188 282.005 315.637C282.056 315.741 282.206 315.702 282.193 315.611Z" fill="white"/>
<path d="M280.45 194.793C280.503 194.793 280.647 194.71 280.526 194.71C280.465 194.71 280.33 194.793 280.45 194.793Z" fill="#FFE66D"/>
<path d="M270.364 352.064H363.546L391.579 282.358H298.535L270.364 352.064Z" fill="#FF6B6B"/>
<path d="M364.639 349.35H241.585V352.064H363.545L364.639 349.35Z" fill="#FF6B6B"/>
<path d="M343.007 317.035C344.202 312.838 341.792 309.435 337.632 309.435C333.473 309.435 329.138 312.838 327.943 317.035C326.748 321.233 329.158 324.636 333.317 324.636C337.477 324.636 341.811 321.233 343.007 317.035Z" fill="white"/>
<path fill-rule="evenodd" clip-rule="evenodd" d="M515.11 262.971C515.11 284.099 497.986 301.223 476.858 301.223C455.73 301.223 438.606 284.099 438.606 262.971C438.606 241.843 455.73 224.719 476.858 224.719C497.986 224.719 515.11 241.843 515.11 262.971Z" fill="#FF6B6B" stroke="#FF6B6B" stroke-width="8.398" stroke-linecap="round" stroke-linejoin="round"/>
<path fill-rule="evenodd" clip-rule="evenodd" d="M472.357 250.466L488.856 260.225C490.943 261.458 490.943 264.479 488.856 265.712L472.357 275.47C470.232 276.728 467.546 275.194 467.546 272.725V253.212C467.546 250.743 470.232 249.208 472.357 250.466Z" fill="white"/>
<path fill-rule="evenodd" clip-rule="evenodd" d="M275.947 421.541H273.018C272.679 421.541 272.354 421.406 272.114 421.166C271.874 420.926 271.739 420.601 271.739 420.262V417.333C271.74 416.994 271.874 416.669 272.114 416.43C272.354 416.19 272.679 416.055 273.018 416.055H275.947C276.649 416.055 277.225 416.631 277.225 417.333V420.262C277.226 420.43 277.193 420.597 277.129 420.752C277.065 420.907 276.971 421.048 276.852 421.167C276.733 421.286 276.592 421.38 276.437 421.445C276.281 421.509 276.115 421.541 275.947 421.541ZM265.791 421.541H262.862C262.523 421.54 262.199 421.405 261.959 421.165C261.72 420.925 261.584 420.601 261.583 420.262V417.333C261.584 416.994 261.718 416.669 261.958 416.43C262.198 416.19 262.523 416.055 262.862 416.055H265.791C266.493 416.055 267.07 416.631 267.07 417.333V420.262C267.07 420.965 266.493 421.541 265.791 421.541ZM255.629 421.541H252.7C252.361 421.54 252.037 421.405 251.797 421.165C251.557 420.925 251.422 420.601 251.421 420.262V417.333C251.422 416.994 251.556 416.669 251.796 416.43C252.036 416.19 252.361 416.055 252.7 416.055H255.629C256.331 416.055 256.908 416.631 256.908 417.333V420.262C256.908 420.43 256.876 420.597 256.811 420.752C256.747 420.907 256.653 421.049 256.534 421.167C256.415 421.286 256.274 421.38 256.119 421.445C255.964 421.509 255.797 421.541 255.629 421.541ZM245.473 421.541H242.544C242.205 421.54 241.881 421.405 241.641 421.165C241.401 420.925 241.266 420.601 241.265 420.262V417.333C241.266 416.994 241.4 416.669 241.64 416.43C241.88 416.19 242.205 416.055 242.544 416.055H245.473C246.181 416.055 246.758 416.631 246.758 417.333V420.262C246.754 420.601 246.618 420.925 246.377 421.165C246.137 421.404 245.812 421.539 245.473 421.541ZM235.317 421.541H232.388C232.048 421.541 231.722 421.407 231.481 421.167C231.241 420.927 231.105 420.602 231.103 420.262V417.333C231.103 417.165 231.137 416.998 231.201 416.843C231.266 416.687 231.361 416.546 231.48 416.428C231.6 416.309 231.741 416.215 231.897 416.151C232.053 416.087 232.22 416.054 232.388 416.055H235.317C236.019 416.055 236.595 416.631 236.595 417.333V420.262C236.595 420.965 236.019 421.541 235.317 421.541ZM265.419 410.467H262.49C262.151 410.466 261.826 410.331 261.587 410.091C261.347 409.852 261.212 409.527 261.211 409.188V406.253C261.211 405.551 261.787 404.975 262.49 404.975H265.419C266.127 404.975 266.697 405.551 266.697 406.253V409.182C266.698 409.351 266.666 409.518 266.602 409.673C266.538 409.829 266.444 409.971 266.325 410.091C266.207 410.21 266.065 410.305 265.91 410.369C265.754 410.434 265.587 410.467 265.419 410.467ZM255.263 410.467H252.334C251.995 410.466 251.67 410.331 251.431 410.091C251.191 409.852 251.056 409.527 251.055 409.188V406.253C251.055 405.551 251.631 404.975 252.334 404.975H255.263C255.965 404.975 256.541 405.551 256.541 406.253V409.182C256.542 409.351 256.51 409.518 256.446 409.673C256.382 409.829 256.288 409.971 256.169 410.091C256.051 410.21 255.909 410.305 255.754 410.369C255.598 410.434 255.431 410.467 255.263 410.467ZM245.107 410.467H242.178C241.838 410.467 241.512 410.333 241.271 410.093C241.031 409.853 240.895 409.528 240.893 409.188V406.253C240.893 405.551 241.469 404.975 242.178 404.975H245.107C245.809 404.975 246.385 405.551 246.385 406.253V409.182C246.385 409.891 245.809 410.467 245.107 410.467ZM255.629 433.438H252.7C252.361 433.437 252.037 433.302 251.797 433.062C251.557 432.822 251.422 432.498 251.421 432.159V429.23C251.422 428.891 251.556 428.566 251.796 428.327C252.036 428.087 252.361 427.952 252.7 427.952H255.629C256.331 427.952 256.908 428.528 256.908 429.23V432.159C256.908 432.327 256.876 432.494 256.811 432.649C256.747 432.804 256.653 432.946 256.534 433.064C256.415 433.183 256.274 433.277 256.119 433.342C255.964 433.406 255.797 433.438 255.629 433.438ZM245.473 433.438H242.544C242.205 433.437 241.881 433.302 241.641 433.062C241.401 432.822 241.266 432.498 241.265 432.159V429.23C241.266 428.891 241.4 428.566 241.64 428.327C241.88 428.087 242.205 427.952 242.544 427.952H245.473C246.181 427.952 246.758 428.528 246.758 429.23V432.159C246.754 432.498 246.618 432.822 246.377 433.062C246.137 433.301 245.812 433.436 245.473 433.438Z" fill="#FFE66D"/>
<path d="M687.275 195.283C668.014 199.845 647.643 183.511 647.643 183.511C647.643 183.511 658.514 159.787 677.781 155.239C697.042 150.676 717.407 166.996 717.407 166.996C717.407 166.996 706.536 190.72 687.275 195.283Z" fill="url(#paint0_linear)"/>
<path d="M709.564 406.788C720.958 414.635 738.364 409.15 738.364 409.15C738.364 409.15 737.286 390.942 725.885 383.102C714.491 375.255 697.093 380.733 697.093 380.733C697.093 380.733 698.171 398.94 709.564 406.788Z" fill="url(#paint1_linear)"/>
<path d="M347.809 479.79C356.6 488.737 373.039 486.851 373.039 486.851C373.039 486.851 375.214 470.458 366.415 461.516C357.624 452.569 341.194 454.45 341.194 454.45C341.194 454.45 339.018 470.843 347.809 479.79Z" fill="url(#paint2_linear)"/>
<path d="M658.16 323.231C653.819 323.231 650.3 326.75 650.3 331.091C650.3 335.432 653.819 338.951 658.16 338.951C662.501 338.951 666.02 335.432 666.02 331.091C666.02 326.75 662.501 323.231 658.16 323.231Z" fill="#FF6B6B"/>
<path d="M138.017 208.322C130.391 208.322 124.208 202.14 124.208 194.513C124.208 186.887 130.391 180.704 138.017 180.704C145.644 180.704 151.826 186.887 151.826 194.513C151.826 202.14 145.644 208.322 138.017 208.322Z" fill="#FF6B6B"/>
<path d="M547.866 153.994C540.772 153.994 535.021 148.243 535.021 141.149C535.021 134.055 540.772 128.304 547.866 128.304C554.96 128.304 560.711 134.055 560.711 141.149C560.711 148.243 554.96 153.994 547.866 153.994Z" fill="#FF6B6B"/>
<path d="M197.043 391.35C200.805 391.35 203.855 394.4 203.855 398.162C203.855 401.924 200.805 404.974 197.043 404.974C193.281 404.974 190.231 401.924 190.231 398.162C190.231 394.4 193.281 391.35 197.043 391.35Z" fill="#FF6B6B"/>
<path d="M642.808 474.038C636.427 474.038 631.255 468.866 631.255 462.485C631.255 456.105 636.427 450.932 642.808 450.932C649.189 450.932 654.361 456.105 654.361 462.485C654.361 468.866 649.189 474.038 642.808 474.038Z" fill="#FFE66D"/>
<path d="M125.879 333.711C121.593 333.711 118.119 330.237 118.119 325.951C118.119 321.665 121.593 318.191 125.879 318.191C130.165 318.191 133.639 321.665 133.639 325.951C133.639 330.237 130.165 333.711 125.879 333.711Z" fill="#FFE66D"/>
<path d="M446.689 331.013C443.382 331.013 440.702 328.333 440.702 325.026C440.702 321.72 443.382 319.039 446.689 319.039C449.996 319.039 452.676 321.72 452.676 325.026C452.676 328.333 449.996 331.013 446.689 331.013Z" fill="#FFE66D"/>
<path d="M608.087 183.26C603.04 183.26 598.949 179.169 598.949 174.122C598.949 169.075 603.04 164.984 608.087 164.984C613.134 164.984 617.225 169.075 617.225 174.122C617.225 179.169 613.134 183.26 608.087 183.26Z" fill="#FFE66D"/>
<path d="M137.832 413.358C148.829 413.358 157.744 422.273 157.744 433.27C157.744 444.267 148.829 453.182 137.832 453.182C126.835 453.182 117.92 444.267 117.92 433.27C117.92 422.273 126.835 413.358 137.832 413.358Z" fill="url(#paint3_linear)"/>
<path d="M349.094 237.479C344.702 237.479 341.142 233.919 341.142 229.527C341.142 225.135 344.702 221.575 349.094 221.575C353.486 221.575 357.046 225.135 357.046 229.527C357.046 233.919 353.486 237.479 349.094 237.479Z" fill="#FFE66D"/>
<path d="M638.249 354.671C632.75 354.671 628.293 351.152 628.293 346.811C628.293 342.47 632.75 338.951 638.249 338.951C643.748 338.951 648.205 342.47 648.205 346.811C648.205 351.152 643.748 354.671 638.249 354.671Z" fill="white"/>
<path d="M518.46 89.1818C520.115 95.3572 516.45 101.705 510.275 103.359C504.099 105.014 497.752 101.349 496.097 95.174C494.442 88.9986 498.107 82.651 504.283 80.9963C510.458 79.3416 516.805 83.0064 518.46 89.1818Z" fill="#FFE66D"/>
<path d="M283.09 458.641C282.161 455.17 284.22 451.603 287.69 450.674C291.16 449.744 294.727 451.803 295.657 455.273C296.587 458.743 294.528 462.31 291.057 463.24C287.587 464.17 284.02 462.111 283.09 458.641Z" fill="#FFE66D"/>
<path d="M700.005 291.791H700.165C701.112 305.217 711.097 305.424 711.097 305.424C711.097 305.424 700.087 305.639 700.087 321.152C700.087 305.639 689.076 305.424 689.076 305.424C689.076 305.424 699.057 305.217 700.005 291.791ZM386.163 160.792H386.438C388.07 184.287 405.267 184.649 405.267 184.649C405.267 184.649 386.304 185.025 386.304 212.173C386.304 185.025 367.342 184.649 367.342 184.649C367.342 184.649 384.531 184.287 386.163 160.792Z" fill="#FFE66D"/>
<defs>
<linearGradient id="paint0_linear" x1="614.744" y1="206.628" x2="783.353" y2="126.971" gradientUnits="userSpaceOnUse">
<stop stop-color="white"/>
<stop offset="1" stop-color="#EEEEEE"/>
</linearGradient>
<linearGradient id="paint1_linear" x1="753.946" y1="432.537" x2="664.261" y2="337.966" gradientUnits="userSpaceOnUse">
<stop stop-color="white"/>
<stop offset="1" stop-color="#EEEEEE"/>
</linearGradient>
<linearGradient id="paint2_linear" x1="382.883" y1="510.352" x2="319.33" y2="410.727" gradientUnits="userSpaceOnUse">
<stop stop-color="white"/>
<stop offset="1" stop-color="#EEEEEE"/>
</linearGradient>
<linearGradient id="paint3_linear" x1="158.593" y1="371.119" x2="157.365" y2="476.592" gradientUnits="userSpaceOnUse">
<stop stop-color="white"/>
<stop offset="1" stop-color="#EEEEEE"/>
</linearGradient>
</defs>
</svg>
