<svg width="754" height="600" viewBox="0 0 754 600" fill="none" xmlns="http://www.w3.org/2000/svg">
<g clip-path="url(#clip0)">
<path fill-rule="evenodd" clip-rule="evenodd" d="M465.408 454.5H438.217C408.184 454.5 383.833 428.483 383.833 396.393V280.18C383.833 272.162 389.925 265.654 397.429 265.654H506.196C513.7 265.654 519.792 272.162 519.792 280.18V396.393C519.792 428.483 495.441 454.5 465.408 454.5Z" fill="#FF6B6B" stroke="#FF6B6B" stroke-width="28.238"/>
<path d="M451.557 440.518V498.624" stroke="#FF6B6B" stroke-width="28.238"/>
<path d="M410.769 498.624H492.344" stroke="#FF6B6B" stroke-width="28.238" stroke-linecap="round" stroke-linejoin="round"/>
<path d="M389.941 523.543H513.173" stroke="#FF6B6B" stroke-width="42.657" stroke-linecap="round" stroke-linejoin="round"/>
<path d="M392.847 309.234H352.06C344.555 309.234 338.464 315.742 338.464 323.761V352.814C338.464 376.884 356.723 396.393 379.252 396.393H392.847M510.266 309.234H551.054C558.558 309.234 564.65 315.742 564.65 323.761V352.814C564.65 376.884 546.39 396.393 523.862 396.393H510.266V309.234Z" stroke="#FF6B6B" stroke-width="28.238" stroke-linecap="round" stroke-linejoin="round"/>
<path fill-rule="evenodd" clip-rule="evenodd" d="M451.808 358.079L461.214 363.359C463.042 364.386 465.185 362.728 464.833 360.548L463.037 349.362L470.647 341.447C472.129 339.904 471.313 337.214 469.264 336.898L458.752 335.266L454.049 325.081C453.136 323.097 450.491 323.097 449.572 325.081L444.874 335.266L434.362 336.898C432.313 337.214 431.498 339.904 432.979 341.447L440.588 349.362L438.793 360.548C438.441 362.728 440.584 364.386 442.413 363.359L451.818 358.079H451.808Z" fill="#FFE66D"/>
<path d="M580.864 265.654H581.079C582.349 283.564 595.739 283.839 595.739 283.839C595.739 283.839 580.974 284.126 580.974 304.821C580.974 284.126 566.209 283.839 566.209 283.839C566.209 283.839 579.593 283.564 580.864 265.654ZM357.589 423.156H357.789C358.974 439.857 371.46 440.114 371.46 440.114C371.46 440.114 357.692 440.382 357.692 459.68C357.692 440.382 343.924 440.114 343.924 440.114C343.924 440.114 356.405 439.857 357.589 423.156ZM535.335 454.219H535.465C536.237 465.1 544.37 465.267 544.37 465.267C544.37 465.267 535.401 465.441 535.401 478.013C535.401 465.441 526.432 465.267 526.432 465.267C526.432 465.267 534.563 465.1 535.335 454.219ZM290.431 293.154H290.56C291.333 304.035 299.467 304.202 299.467 304.202C299.467 304.202 290.497 304.376 290.497 316.948C290.497 304.376 281.528 304.202 281.528 304.202C281.528 304.202 289.658 304.035 290.431 293.154ZM352.826 241.487H352.956C353.728 252.367 361.863 252.534 361.863 252.534C361.863 252.534 352.893 252.709 352.893 265.28C352.893 252.709 343.923 252.534 343.923 252.534C343.923 252.534 352.054 252.367 352.826 241.487ZM386.521 468.99H386.62C387.202 477.203 393.342 477.329 393.342 477.329C393.342 477.329 386.571 477.461 386.571 486.95C386.571 477.461 379.801 477.329 379.801 477.329C379.801 477.329 385.939 477.203 386.521 468.99ZM580.728 396.489H580.827C581.409 404.702 587.549 404.828 587.549 404.828C587.549 404.828 580.779 404.959 580.779 414.449C580.779 404.959 574.008 404.828 574.008 404.828C574.008 404.828 580.146 404.702 580.728 396.489ZM537.051 241.487H537.15C537.732 249.699 543.872 249.826 543.872 249.826C543.872 249.826 537.101 249.957 537.101 259.447C537.101 249.957 530.331 249.826 530.331 249.826C530.331 249.826 536.468 249.699 537.051 241.487Z" fill="#FFE66D"/>
<path d="M97 541L684 543.636" stroke="#1A535C" stroke-width="4"/>
<path d="M76.148 541.402H405.843C418.434 541.402 428.645 533.232 428.645 523.156V512.308C428.645 502.228 418.434 494.062 405.843 494.062H76.153C91.236 507.253 91.493 527.417 76.761 540.855L76.148 541.402Z" fill="#1A535C"/>
<path d="M81.24 499.48H264.102C276.694 499.48 286.905 507.65 286.905 517.73C286.905 527.805 276.699 535.975 264.102 535.975H81.224C89.773 524.783 89.752 510.644 81.24 499.48Z" fill="white"/>
<path d="M150.817 461.177C150.34 460.485 151.069 459.68 152.175 459.68H326.625C340.298 459.68 351.384 467.376 351.384 476.873C351.384 486.366 340.298 494.067 326.625 494.067H152.128C151.016 494.067 150.282 493.257 150.77 492.561C157.677 482.623 157.656 471.07 150.817 461.177Z" fill="#1A535C"/>
<path d="M151.919 462.88H238.378C254.426 462.88 267.437 469.33 267.437 477.285C267.437 485.241 254.426 491.691 238.378 491.691H151.352C157.299 482.525 157.462 472.086 151.919 462.88Z" fill="white"/>
<path d="M177.308 458.437H278.808C287.808 458.437 295.108 451.757 295.108 443.514C295.108 435.271 287.813 428.591 278.808 428.591H177.303C185.059 436.866 185.363 449.001 178.026 457.592L177.308 458.437Z" fill="white"/>
<path d="M295.098 443.514C295.098 435.271 287.629 428.59 278.415 428.59H175.373C174.89 428.59 174.502 428.238 174.508 427.809C174.513 427.384 174.896 427.044 175.373 427.044H338.836C349.005 427.044 357.249 434.417 357.249 443.518C357.249 452.614 349.005 459.991 338.836 459.991H175.373C174.901 459.991 174.513 459.647 174.508 459.226C174.502 458.797 174.89 458.445 175.373 458.445H278.415C287.629 458.437 295.098 451.756 295.098 443.514Z" fill="#1A535C"/>
<path d="M116.525 395.033H376.25C384.315 395.033 390.855 400.079 390.855 406.302V415.779C390.855 422.003 384.315 427.049 376.25 427.049H116.525L116.662 426.939C127.775 418.013 127.717 403.899 116.525 395.033Z" fill="#1A535C"/>
<path d="M121.125 399.772H259.97C268.036 399.772 274.576 404.818 274.576 411.041C274.576 417.265 268.036 422.311 259.97 422.311H121.13C126.233 415.33 126.228 406.744 121.125 399.772Z" fill="white"/>
<path d="M306.203 268.336C306.612 270.872 307.159 273.453 307.706 275.987C309.038 281.737 310.745 287.394 312.817 292.921C313.876 295.678 314.981 298.389 316.224 301.097C316.845 302.428 317.466 303.76 318.133 305.09C318.467 305.732 318.801 306.42 319.134 307.063C319.42 307.613 319.751 308.116 320.036 308.621C318.047 308.558 308.233 309.124 306.201 309.294" stroke="white" stroke-width="1.376" stroke-miterlimit="10" stroke-linecap="round"/>
<path d="M246.343 267.823C245.051 273.41 244.119 279.053 243.488 284.81" stroke="white" stroke-width="1.376" stroke-miterlimit="10" stroke-linecap="round"/>
<path d="M607.299 483.5C607.801 483.5 608.283 483.303 608.641 482.951C609 482.599 609.205 482.12 609.213 481.618C609.58 461.611 593.546 452.948 592.86 452.581C592.407 452.344 591.879 452.296 591.392 452.449C590.904 452.601 590.497 452.941 590.26 453.394C590.024 453.845 589.975 454.371 590.125 454.858C590.274 455.344 590.609 455.753 591.057 455.995C591.089 456.011 594.807 458.005 598.396 462.169C603.151 467.674 605.496 474.199 605.352 481.554C605.344 482.063 605.538 482.554 605.89 482.921C606.243 483.289 606.726 483.502 607.235 483.516C607.267 483.5 607.283 483.5 607.299 483.5ZM613.489 433.834C613.489 433.834 635.809 391.73 555.734 362.215C551.601 360.699 547.421 364.337 548.41 368.628C553.468 390.55 570.045 441.795 613.489 433.834Z" fill="#4ECDC4"/>
<path d="M635.458 479.687C635.554 479.687 635.649 479.687 635.729 479.671C635.979 479.634 636.22 479.548 636.437 479.419C636.655 479.289 636.845 479.118 636.996 478.915C637.147 478.712 637.257 478.481 637.319 478.236C637.381 477.99 637.394 477.735 637.357 477.485C631.804 439.179 603.262 421.374 600.039 419.459C599.13 418.917 597.933 419.204 597.391 420.113C596.848 421.023 597.135 422.203 598.045 422.746L598.093 422.762C599.449 423.559 606.564 427.963 614.223 436.546C624.784 448.416 631.294 462.361 633.559 478.012C633.703 479.001 634.517 479.687 635.458 479.687Z" fill="#4ECDC4"/>
<path d="M623.701 479.686H623.797C624.306 479.66 624.783 479.434 625.127 479.058C625.47 478.682 625.652 478.185 625.632 477.676C624.866 461.291 635.268 446.341 635.364 446.182C635.655 445.765 635.77 445.249 635.683 444.747C635.596 444.245 635.315 443.797 634.901 443.501C634.483 443.211 633.968 443.096 633.466 443.183C632.964 443.269 632.517 443.55 632.221 443.964C631.758 444.618 620.957 460.158 621.787 477.851C621.807 478.345 622.018 478.812 622.375 479.154C622.731 479.496 623.207 479.687 623.701 479.686ZM618.18 482.51H618.228C618.481 482.504 618.73 482.448 618.961 482.345C619.192 482.242 619.4 482.095 619.574 481.911C619.748 481.727 619.883 481.51 619.972 481.274C620.062 481.037 620.103 480.785 620.095 480.532L618.451 418.198C618.445 417.946 618.389 417.696 618.286 417.465C618.183 417.234 618.035 417.026 617.851 416.852C617.667 416.679 617.451 416.543 617.214 416.454C616.978 416.365 616.726 416.323 616.473 416.331C616.22 416.337 615.971 416.394 615.74 416.497C615.509 416.599 615.301 416.747 615.127 416.931C614.953 417.115 614.818 417.332 614.728 417.568C614.639 417.805 614.597 418.057 614.606 418.309L616.25 480.627C616.264 481.13 616.474 481.608 616.834 481.96C617.194 482.311 617.677 482.509 618.18 482.51Z" fill="#4ECDC4"/>
<path d="M631.55 447.251C631.55 447.251 676.972 461.69 691.698 377.61C692.464 373.27 688.124 369.824 684.072 371.563C663.411 380.45 615.946 405.929 631.55 447.251ZM602.13 463.429C602.13 463.429 561.302 488.014 527.463 409.646C525.724 405.61 529.138 401.238 533.478 401.988C555.638 405.849 607.714 419.618 602.13 463.429Z" fill="#4ECDC4"/>
<path d="M609.612 439.752C612.771 446.294 622.312 445.576 624.482 438.635C634.166 407.716 650.392 342.175 616.792 334.644C579.107 326.205 591.727 402.77 609.612 439.752Z" fill="#4ECDC4"/>
<path d="M617.367 443.948H617.415C617.989 443.932 618.436 443.438 618.42 442.863L614.878 355.225C614.873 355.088 614.842 354.953 614.785 354.828C614.727 354.703 614.646 354.59 614.545 354.497C614.444 354.403 614.326 354.331 614.197 354.283C614.068 354.236 613.93 354.214 613.793 354.22C613.219 354.236 612.772 354.731 612.788 355.305L616.314 442.943C616.324 443.215 616.439 443.473 616.636 443.66C616.833 443.848 617.095 443.952 617.367 443.948ZM600.998 463.556C601.301 463.556 601.604 463.428 601.811 463.173C602.178 462.726 602.115 462.056 601.668 461.705L553.134 421.979C552.688 421.612 552.018 421.676 551.667 422.122C551.3 422.569 551.363 423.239 551.81 423.59L600.344 463.317C600.535 463.476 600.774 463.556 600.998 463.556Z" fill="#1A535C"/>
<path d="M580.3 475.571C573.769 475.571 568.908 481.602 570.294 487.983L571.188 492.02L573.054 500.587L573.932 504.64L574.238 506.039C578.651 526.227 596.527 540.617 617.192 540.617C637.857 540.617 655.733 526.227 660.147 506.039L660.453 504.64L661.33 500.587L663.197 492.02L664.074 487.983C665.468 481.605 660.61 475.571 654.081 475.571H580.3Z" fill="white" stroke="#4ECDC4" stroke-width="4" stroke-linecap="round" stroke-linejoin="round"/>
<path d="M91.286 313.626C78.426 316.672 64.824 305.765 64.824 305.765C64.824 305.765 72.082 289.925 84.947 286.888C97.808 283.841 111.406 294.738 111.406 294.738C111.406 294.738 104.147 310.579 91.286 313.626Z" fill="url(#paint0_linear)"/>
<path d="M83.373 141.883C102.933 155.356 132.816 145.938 132.816 145.938C132.816 145.938 130.965 114.68 111.392 101.221C91.832 87.748 61.963 97.153 61.963 97.153C61.963 97.153 63.814 128.411 83.373 141.883Z" fill="url(#paint1_linear)"/>
<path d="M478.495 189.788C466.812 201.68 444.964 199.172 444.964 199.172C444.964 199.172 442.072 177.385 453.767 165.501C465.45 153.609 487.288 156.109 487.288 156.109C487.288 156.109 490.179 177.897 478.495 189.788Z" fill="url(#paint2_linear)"/>
<path d="M392.156 364.055C389.507 364.055 387.36 361.908 387.36 359.259C387.36 356.61 389.507 354.463 392.156 354.463C394.805 354.463 396.952 356.61 396.952 359.259C396.952 361.908 394.805 364.055 392.156 364.055Z" fill="#FFE66D"/>
<path d="M374.205 102.523C370.421 102.523 367.353 99.4552 367.353 95.671C367.353 91.8867 370.421 88.819 374.205 88.819C377.989 88.819 381.057 91.8867 381.057 95.671C381.057 99.4552 377.989 102.523 374.205 102.523Z" fill="#FFE66D"/>
<path d="M10.7875 486.526C11.7445 490.097 9.62499 493.768 6.05343 494.725C2.48188 495.682 -1.18924 493.563 -2.14623 489.991C-3.10323 486.42 -0.98371 482.748 2.58785 481.791C6.1594 480.835 9.83052 482.954 10.7875 486.526Z" fill="#FFE66D"/>
<path d="M609.469 303.604C605.685 303.604 602.617 301.15 602.617 298.123C602.617 295.096 605.685 292.642 609.469 292.642C613.253 292.642 616.321 295.096 616.321 298.123C616.321 301.15 613.253 303.604 609.469 303.604Z" fill="#FFE66D"/>
<path d="M542.982 275.548H543.161C544.223 290.586 555.407 290.818 555.407 290.818C555.407 290.818 543.074 291.059 543.074 308.435C543.074 291.059 530.741 290.818 530.741 290.818C530.741 290.818 541.92 290.586 542.982 275.548ZM202.585 108.826H202.76C203.797 124.126 214.72 124.362 214.72 124.362C214.72 124.362 202.675 124.607 202.675 142.286C202.675 124.607 190.629 124.362 190.629 124.362C190.629 124.362 201.548 124.126 202.585 108.826ZM-11.045 292H-10.87C-9.833 307.3 1.091 307.536 1.091 307.536C1.091 307.536 -10.955 307.781 -10.955 325.459C-10.955 307.781 -23 307.536 -23 307.536C-23 307.536 -12.081 307.3 -11.045 292ZM465.955 235H466.13C467.167 250.3 478.091 250.536 478.091 250.536C478.091 250.536 466.045 250.781 466.045 268.459C466.045 250.781 454 250.536 454 250.536C454 250.536 464.919 250.3 465.955 235ZM150.933 210H151.063C151.838 221.432 160 221.608 160 221.608C160 221.608 151 221.791 151 235C151 221.791 142 221.608 142 221.608C142 221.608 150.158 221.432 150.933 210Z" fill="#FFE66D"/>
</g>
<defs>
<linearGradient id="paint0_linear" x1="42.857" y1="321.201" x2="155.438" y2="268.013" gradientUnits="userSpaceOnUse">
<stop stop-color="white"/>
<stop offset="1" stop-color="#EEEEEE"/>
</linearGradient>
<linearGradient id="paint1_linear" x1="159.567" y1="186.089" x2="5.59703" y2="23.731" gradientUnits="userSpaceOnUse">
<stop stop-color="white"/>
<stop offset="1" stop-color="#EEEEEE"/>
</linearGradient>
<linearGradient id="paint2_linear" x1="431.88" y1="230.407" x2="516.345" y2="98" gradientUnits="userSpaceOnUse">
<stop stop-color="white"/>
<stop offset="1" stop-color="#EEEEEE"/>
</linearGradient>
<clipPath id="clip0">
<rect width="900" height="600" fill="white" transform="translate(-146)"/>
</clipPath>
</defs>
</svg>
